PathFileType	4	(X/Y/Z)	TVC_60_BWA02_walk_RCNL2025.trc
DataRate	CameraRate	NumFrames	NumMarkers	Units	OrigDataRate	OrigDataStartFrame	OrigNumFrames
100	100	12	27	mm	100	35	276
Frame#	Time	R_Shoulder			L_Shoulder			C7			J_Notch			R_Elbow			L_Elbow			R_Wrist			L_Wrist			R_Asis			L_Asis			R_Psis			L_Psis			Sacral			Thoracic			Sternum			R_Thigh_Lateral			R_Knee_Lateral			R_Shank_Lateral			R_Ankle_Lateral			R_Heel			R_Toe			L_Thigh_Lateral			L_Knee_Lateral			L_Shank_Lateral			L_Ankle_Lateral			L_Heel			L_Toe		
		X1	Y1	Z1	X2	Y2	Z2	X3	Y3	Z3	X4	Y4	Z4	X5	Y5	Z5	X6	Y6	Z6	X7	Y7	Z7	X8	Y8	Z8	X9	Y9	Z9	X10	Y10	Z10	X11	Y11	Z11	X12	Y12	Z12	X13	Y13	Z13	X14	Y14	Z14	X15	Y15	Z15	X16	Y16	Z16	X17	Y17	Z17	X18	Y18	Z18	X19	Y19	Z19	X20	Y20	Z20	X21	Y21	Z21	X22	Y22	Z22	X23	Y23	Z23	X24	Y24	Z24	X25	Y25	Z25	X26	Y26	Z26	X27	Y27	Z27
35	0.34000000	-625.685669	1309.222290	-59.858387	-667.968933	1328.505859	-408.315582	-701.216003	1385.556152	-229.563339	-594.774048	1253.010864	-242.689163	-622.053955	984.250183	45.504555	-768.795532	995.099854	-450.456665	-486.621429	788.268982	47.345901	-709.503510	772.701324	-504.901703	-619.211304	901.799561	-82.934692	-626.738159	895.875061	-367.900879	-797.459900	894.602661	-158.637756	-801.079712	888.464478	-268.705444	-799.269806	891.533569	-213.671600	-765.131409	1178.306519	-225.438980	-570.826599	1061.161011	-229.675629	-682.289185	581.035278	-20.589491	-714.369141	424.340515	-104.483337	-792.930420	218.951202	-79.555702	-873.533264	67.512085	-152.912659	-919.247925	69.890663	-197.926865	-749.344238	42.305897	-165.701385	-594.105652	624.277771	-435.314880	-492.792725	465.987244	-369.538849	-442.101471	284.128052	-414.653503	-367.202667	87.421814	-353.367096	-409.137665	72.431213	-309.693604	-238.877258	114.288712	-344.067627
36	0.35000000	-618.309631	1307.896362	-60.685692	-659.394226	1327.278564	-409.353973	-693.349426	1384.252075	-230.668533	-586.619324	1251.857178	-243.490784	-612.412720	982.953979	44.540943	-760.531921	993.920471	-451.051483	-475.486542	787.957886	45.531816	-701.880157	771.231659	-504.963760	-611.049622	900.778931	-83.629738	-617.895569	894.055359	-368.804749	-789.087158	893.273499	-160.092072	-792.323303	886.851257	-270.051361	-790.705231	890.062378	-215.071716	-756.929504	1176.791016	-226.905884	-562.487183	1059.969849	-230.339798	-676.116028	580.241089	-21.095530	-709.978577	423.767548	-104.779579	-791.000183	219.373459	-79.803139	-873.108582	68.662956	-153.161835	-918.657166	71.557663	-198.243256	-749.295227	42.304478	-165.684708	-585.656372	622.895752	-436.102356	-483.766479	464.966705	-370.181793	-430.743774	283.654907	-415.097504	-352.447632	88.180405	-353.543365	-393.901825	72.667389	-309.617767	-224.289673	116.787300	-344.885773
37	0.36000000	-610.821594	1306.593506	-61.583481	-650.752747	1326.088379	-410.455811	-685.405701	1382.974365	-231.834824	-578.372192	1250.745239	-244.370895	-602.885010	981.688904	43.510319	-752.108765	992.757019	-451.724945	-464.605270	787.599518	43.750774	-694.127655	769.762085	-505.057541	-602.682800	899.775146	-84.416420	-609.005615	892.305420	-369.809937	-780.550171	891.975952	-161.577545	-783.444458	885.282043	-271.419189	-781.997314	888.628998	-216.498367	-748.609253	1175.291260	-228.409271	-554.051392	1058.805908	-231.113312	-669.743774	579.460938	-21.663456	-705.334717	423.235107	-105.129097	-788.853577	219.886215	-80.049339	-872.596313	69.974602	-153.360306	-917.989136	73.419800	-198.506912	-749.207825	42.320034	-165.666946	-576.778442	621.689514	-436.907562	-474.419495	464.064087	-370.819000	-420.247955	282.992279	-415.409668	-339.780792	88.467232	-353.511932	-380.786896	72.677460	-309.263885	-211.805008	118.161392	-345.770050
38	0.37000000	-603.209167	1305.326538	-62.556896	-642.056335	1324.943481	-411.622498	-677.383057	1381.733521	-233.062149	-570.032043	1249.687134	-245.334946	-593.470886	980.465027	42.411427	-743.532349	991.616150	-452.477051	-453.988037	787.193634	42.002709	-686.241241	768.303650	-505.190399	-594.096375	898.794983	-85.296722	-600.053223	890.639526	-370.918488	-771.836853	890.716370	-163.091782	-774.432617	883.765564	-272.808563	-773.134735	887.240967	-217.950172	-740.169067	1173.817627	-229.942535	-545.511230	1057.682983	-232.001190	-663.184082	578.710510	-22.274086	-700.443176	422.751709	-105.515717	-786.494751	220.497910	-80.273575	-871.990234	71.452988	-153.485779	-917.239197	75.485992	-198.696640	-749.079773	42.355015	-165.636246	-567.530396	620.636292	-437.755432	-464.793488	463.233185	-371.466339	-410.586151	282.084412	-415.598999	-329.124603	88.188591	-353.274811	-369.739563	72.356056	-308.657349	-201.336136	118.333595	-346.627197
39	0.38000000	-595.461426	1304.108643	-63.610428	-633.316956	1323.852295	-412.855164	-669.280273	1380.539795	-234.350174	-561.598999	1248.694336	-246.387848	-584.169983	979.292664	41.243076	-734.809937	990.504272	-453.306946	-443.644394	786.740356	40.286956	-678.216034	766.867920	-505.369949	-585.277527	897.845032	-86.272217	-591.021362	889.069885	-372.130005	-762.936401	889.500793	-164.632416	-765.278076	882.310364	-274.219818	-764.107239	885.905579	-219.426117	-731.608521	1172.380493	-231.499130	-536.858154	1056.615112	-233.007111	-656.452026	578.007996	-22.911295	-695.310974	422.325684	-105.922874	-783.935547	221.220352	-80.457680	-871.288025	73.105713	-153.521515	-916.401184	77.764397	-198.798141	-748.908875	42.412106	-165.581924	-557.987427	619.710083	-438.672424	-454.950714	462.417419	-372.137024	-401.704407	280.892822	-415.677765	-320.345917	87.296143	-352.841492	-360.648193	71.638298	-307.835693	-192.741501	117.283035	-347.354675
40	0.39000000	-587.568970	1302.952515	-64.747780	-624.546570	1322.822632	-414.154541	-661.096680	1379.403076	-235.698105	-553.073486	1247.778198	-247.533691	-574.981323	978.182007	40.004196	-725.949768	989.427795	-454.213287	-433.583115	786.240417	38.602273	-670.047394	765.466614	-505.603882	-576.215576	896.930969	-87.344124	-581.892090	887.606995	-373.441376	-753.839783	888.335388	-166.196884	-755.972595	880.925049	-275.653656	-754.906189	884.630219	-220.925270	-722.927979	1170.990723	-233.072571	-528.082947	1055.616943	-234.133316	-649.564636	577.373230	-23.563295	-689.945007	421.964813	-106.334717	-781.193970	222.068558	-80.587746	-870.489685	74.940758	-153.457809	-915.467102	80.261894	-198.804733	-748.692749	42.493572	-165.495895	-548.235962	618.878235	-439.679535	-444.968445	461.557404	-372.840118	-393.526276	279.398895	-415.660461	-313.262512	85.788818	-352.229828	-353.347382	70.503586	-306.845856	-185.829895	115.043770	-347.854767
41	0.40000000	-579.523926	1301.870728	-65.971764	-615.756775	1321.861816	-415.520966	-652.831970	1378.333252	-237.104752	-544.456604	1246.949219	-248.775696	-565.903748	977.143127	38.693871	-716.960938	988.393127	-455.194000	-423.811966	785.695007	36.946888	-661.730774	764.111450	-505.899994	-566.902954	896.058167	-88.513290	-572.647766	886.260376	-374.846710	-744.540283	887.226257	-167.782318	-746.510254	879.618835	-277.110901	-745.525269	883.422546	-222.446609	-714.129150	1169.658447	-234.656570	-519.176758	1054.702881	-235.380539	-642.539185	576.826477	-24.223013	-684.349609	421.675476	-106.736969	-778.292480	223.060104	-80.654495	-869.595459	76.965240	-153.292145	-914.427429	82.983704	-198.716583	-748.428040	42.600342	-165.373810	-538.371948	618.097351	-440.785950	-434.931183	460.599304	-373.579773	-385.956970	277.605652	-415.562775	-307.653259	83.710854	-351.465790	-347.626160	68.975594	-305.740234	-180.369034	111.699188	-348.047607
42	0.41000000	-571.320129	1300.875732	-67.284187	-606.958496	1320.977051	-416.954224	-644.486511	1377.339844	-238.568466	-535.750183	1246.217529	-250.115967	-556.935852	976.185730	37.311409	-707.853027	987.406494	-456.246521	-414.337814	785.106110	35.318518	-653.261932	762.814240	-506.265839	-557.335693	895.231262	-89.780281	-563.272705	885.038879	-376.337494	-735.034485	886.179810	-169.385315	-736.888245	878.401123	-278.592316	-735.961365	882.290466	-223.988815	-705.214722	1168.394531	-236.245071	-510.131439	1053.887573	-236.748032	-635.390381	576.386108	-24.888102	-678.524414	421.461914	-107.117638	-775.254700	224.213699	-80.653076	-868.604187	79.184769	-153.028275	-913.271118	85.933380	-198.538452	-748.110352	42.731125	-165.215332	-528.501282	617.310242	-441.983826	-424.921570	459.503265	-374.356232	-378.887512	275.538269	-415.401123	-303.270599	81.146729	-350.582458	-343.239075	67.118782	-304.572906	-176.097595	107.374390	-347.881683
43	0.42000000	-562.953186	1299.979126	-68.685760	-598.161682	1320.175171	-418.453461	-636.061035	1376.431885	-240.087128	-526.956543	1245.592041	-251.555496	-548.076172	975.319214	35.856380	-698.635864	986.473938	-457.367920	-405.166428	784.476318	33.714450	-644.636932	761.586578	-506.708603	-547.514099	894.454407	-91.145424	-553.754272	883.951538	-377.903168	-725.322266	885.202698	-171.001801	-727.107544	877.282349	-280.098083	-726.214905	881.242523	-225.549942	-696.188660	1167.209229	-237.832352	-500.940521	1053.185303	-238.233505	-628.126282	576.066528	-25.561224	-672.462036	421.325623	-107.467415	-772.100220	225.546997	-80.582657	-867.511353	81.603149	-152.674271	-911.985718	89.113129	-198.276947	-747.733521	42.881821	-165.024078	-518.734558	616.447449	-443.243591	-415.010742	458.250641	-375.167145	-372.199463	273.243500	-415.192474	-299.854675	78.213791	-349.618286	-339.920532	65.031769	-303.396179	-172.740311	102.228180	-347.340332
44	0.43000000	-554.420349	1299.192383	-70.176102	-589.375183	1319.462280	-420.017090	-627.556885	1375.617554	-241.658127	-518.078613	1245.080811	-253.094009	-539.323425	974.552307	34.328686	-689.319397	985.601624	-458.554840	-396.302582	783.809143	32.131602	-635.852356	760.439819	-507.235123	-537.443604	893.731445	-92.608780	-544.084778	883.008057	-379.531769	-715.407837	884.301758	-172.626877	-717.173340	876.273621	-281.627563	-716.290588	880.287689	-227.127220	-687.056335	1166.113281	-239.412964	-491.599854	1052.609497	-239.833282	-620.744019	575.876404	-26.250191	-666.146545	421.264618	-107.779869	-768.838928	227.073730	-80.446205	-866.306519	84.221901	-152.240448	-910.556519	92.524483	-197.937881	-747.289795	43.045567	-164.806824	-509.176056	615.438232	-444.515411	-405.249573	456.849060	-376.009216	-365.770050	270.788025	-414.954803	-297.148010	75.053017	-348.614319	-337.400482	62.837856	-302.257599	-170.025009	96.445366	-346.443085
45	0.44000000	-545.720703	1298.525879	-71.753670	-580.606323	1318.844482	-421.642731	-618.975769	1374.904663	-243.278381	-509.119965	1244.690796	-254.729874	-530.676453	973.893250	32.728611	-679.913574	984.795471	-459.803833	-387.749893	783.108856	30.566616	-626.905060	759.384918	-507.851471	-527.134827	893.065857	-94.170181	-534.262451	882.219238	-381.210815	-705.299561	883.484070	-174.254761	-707.095154	875.386597	-283.178894	-706.197357	879.435333	-228.716827	-677.824341	1165.116699	-240.981949	-482.108398	1052.172852	-241.542374	-613.225891	575.816528	-26.967394	-659.551636	421.273041	-108.051430	-765.465149	228.801712	-80.249619	-864.971130	87.039993	-151.737244	-908.965088	96.169350	-197.524353	-746.769714	43.213474	-164.572296	-499.909271	614.229736	-445.739410	-395.662354	455.333954	-376.879730	-359.478638	268.254700	-414.707367	-294.910553	71.818138	-347.611389	-335.421387	60.673130	-301.197540	-167.700424	90.229340	-345.241821
46	0.45000000	-536.854919	1297.989136	-73.415787	-571.860901	1318.327271	-423.327148	-610.319885	1374.300171	-244.944290	-500.084991	1244.427368	-256.460083	-522.134583	973.349304	31.056873	-670.427795	984.061279	-461.111267	-379.510925	782.380402	29.015954	-617.792358	758.432343	-508.563065	-516.604431	892.461060	-95.829132	-524.292419	881.597229	-382.928162	-695.010498	882.756714	-175.878922	-696.887085	874.633301	-284.748932	-695.948792	878.695007	-230.313927	-668.500549	1164.229492	-242.534790	-472.468719	1051.886719	-243.354477	-605.537231	575.879150	-27.728430	-652.640137	421.340790	-108.281105	-761.954895	230.732330	-80.000084	-863.476624	90.055168	-151.173157	-907.186646	100.051575	-197.035889	-746.162720	43.375366	-164.329681	-490.981781	612.807007	-446.861023	-386.243591	453.766388	-377.777802	-353.214111	265.737366	-414.471558	-292.934082	68.663528	-346.646942	-333.754730	58.672775	-300.247559	-165.553345	83.794670	-343.812561
